<svg width="166" height="166" viewBox="0 0 166 166" fill="none" xmlns="http://www.w3.org/2000/svg">
<path d="M83.0042 0C37.3523 0 0 37.3523 0 83.0042C0 128.648 37.3523 166 83.0042 166C128.648 166 166 128.648 166 83.0042C166 37.3523 129.063 0 83.0042 0ZM121.179 119.933C119.526 122.417 116.618 123.256 114.117 121.603C94.602 109.556 70.1186 107.064 41.0659 113.702C38.1748 114.549 35.6824 112.472 34.8516 109.972C34.0125 107.064 36.0895 104.588 38.5902 103.749C70.1186 96.6873 97.518 99.6033 119.094 112.888C122.001 114.126 122.417 117.44 121.179 119.933ZM131.148 97.111C129.063 100.01 125.333 101.257 122.417 99.1796C100.01 85.5048 65.9896 81.3343 39.8447 89.6422C36.5381 90.4813 32.7829 88.8114 31.9605 85.5048C31.1214 82.1651 32.7913 78.4265 36.1061 77.5957C66.3967 68.4737 103.757 73.043 129.479 88.8197C131.971 90.0576 133.217 94.2032 131.148 97.111ZM131.971 73.8572C105.411 58.0971 61.0049 56.4355 35.6824 64.3363C33.7567 64.8912 31.6912 64.6829 29.9151 63.7546C28.139 62.8263 26.7887 61.2494 26.1449 59.3516C25.5802 57.4235 25.7827 55.3518 26.7102 53.5696C27.6376 51.7875 29.2182 50.4329 31.1214 49.7892C60.5895 41.0742 109.149 42.7275 139.863 61.0132C143.594 63.0818 144.84 68.0666 142.763 71.7968C140.686 74.7046 135.709 75.9341 131.971 73.8572Z" fill="black"/>
</svg>
