<svg width="273" height="278" viewBox="0 0 273 278" fill="none" xmlns="http://www.w3.org/2000/svg">
<path fill-rule="evenodd" clip-rule="evenodd" d="M136.5 0C61.0837 0 0 63.7687 0 142.5C0 205.556 39.0731 258.816 93.3319 277.697C100.157 278.944 102.716 274.669 102.716 270.928C102.716 267.544 102.546 256.322 102.546 244.388C68.25 250.978 59.3775 235.659 56.6475 227.644C55.1119 223.547 48.4575 210.9 42.6562 207.516C37.8787 204.844 31.0537 198.253 42.4856 198.075C53.235 197.897 60.9131 208.406 63.4725 212.681C75.7575 234.234 95.3794 228.178 103.228 224.438C104.423 215.175 108.006 208.941 111.93 205.378C81.5587 201.816 49.8225 189.525 49.8225 135.019C49.8225 119.522 55.1119 106.697 63.8138 96.7219C62.4488 93.1594 57.6712 78.5531 65.1787 58.9594C65.1787 58.9594 76.6106 55.2188 102.716 73.5656C113.636 70.3594 125.239 68.7562 136.841 68.7562C148.444 68.7562 160.046 70.3594 170.966 73.5656C197.072 55.0406 208.504 58.9594 208.504 58.9594C216.011 78.5531 211.234 93.1594 209.869 96.7219C218.571 106.697 223.86 119.344 223.86 135.019C223.86 189.703 191.953 201.816 161.582 205.378C166.53 209.831 170.796 218.381 170.796 231.741C170.796 250.8 170.625 266.119 170.625 270.928C170.625 274.669 173.184 279.122 180.009 277.697C233.927 258.816 273 205.378 273 142.5C273 63.7687 211.916 0 136.5 0Z" fill="white"/>
</svg>
